<svg width="77" height="77" viewBox="0 0 77 77" fill="none" xmlns="http://www.w3.org/2000/svg">
<path d="M72.4501 34.9123C72.4501 53.1313 57.6807 67.8998 39.4626 67.8998C21.2445 67.8998 6.4751 53.1313 6.4751 34.9123C6.4751 16.6942 21.2445 1.9248 39.4626 1.9248C57.6807 1.9248 72.4501 16.6942 72.4501 34.9123Z" fill="white"/>
<path d="M65.6012 35.8955C65.6278 35.2679 65.116 34.7573 64.4878 34.7573C63.8596 34.7573 63.3531 35.2674 63.3239 35.895C62.7314 48.6179 52.2549 58.7858 39.4628 58.7858C26.2916 58.7858 15.5753 48.0062 15.5753 34.7573C15.5753 22.5145 24.7319 12.3998 36.5157 10.9315L34.9081 12.5487C34.4658 12.9936 34.4658 13.7122 34.9082 14.157C35.3542 14.6055 36.0799 14.6054 36.5257 14.1569L41.0713 9.58452L36.5258 5.01263C36.0799 4.56414 35.3542 4.5641 34.9082 5.01254C34.4658 5.45738 34.4658 6.17599 34.9081 6.62091L36.8479 8.57216C23.645 9.89627 13.3003 21.1334 13.3003 34.7573C13.3003 49.2695 25.0358 61.0742 39.4628 61.0742C53.5107 61.0742 65.0067 49.8817 65.6012 35.8955Z" fill="#205C8C" stroke="#205C8C" stroke-width="0.5"/>
<path d="M62.2421 30.1027C61.5973 29.4579 61.5972 28.4126 62.2419 27.7678C62.8867 27.1227 63.9325 27.1227 64.5774 27.7678C65.222 28.4126 65.2219 29.4579 64.5772 30.1027C63.9324 30.7475 62.8869 30.7475 62.2421 30.1027Z" fill="#F69B00"/>
<path d="M47.3335 24.8223L38.8335 44.7598H33.271L41.7866 26.0723H30.9429V22.0098H47.3335V24.8223Z" fill="#F69B00"/>
<rect x="5.7749" y="55.8252" width="67.375" height="19.25" rx="2" fill="white"/>
<path d="M22.551 71.0711C24.6134 71.0711 26.1908 70.5793 27.2832 69.5957C28.3755 68.612 28.9217 67.1955 28.9217 65.3461C28.9217 63.6093 28.3955 62.2568 27.343 61.2886C26.2905 60.3203 24.8128 59.8362 22.9098 59.8362H19.25V71.0711H22.551ZM22.7822 69.1038H21.7217V61.7881H23.0374C25.2486 61.7881 26.3543 62.9946 26.3543 65.4075C26.3543 67.8717 25.1636 69.1038 22.7822 69.1038ZM32.5336 71.0711L33.3788 68.3969H37.6286L38.4738 71.0711H41.1369L37.0067 59.7901H33.9848L29.8705 71.0711H32.5336ZM37.0386 66.3989H34.0007C34.83 63.8117 35.3323 62.1902 35.5077 61.5345C35.5502 61.7189 35.6207 61.9699 35.719 62.2876C35.8173 62.6052 36.2572 63.9756 37.0386 66.3989ZM47.4598 71.0711V66.6986L51.3269 59.8362H48.6638L46.2319 64.4623L43.816 59.8362H41.1369L45.004 66.7754V71.0711H47.4598ZM55.3773 71.2248C56.7275 71.2248 57.7813 70.9328 58.5388 70.3488C59.2963 69.7647 59.675 68.9655 59.675 67.9512C59.675 67.2185 59.473 66.5999 59.069 66.0953C58.665 65.5907 57.9182 65.0873 56.8285 64.5853C56.0046 64.2062 55.4823 63.9436 55.2617 63.7976C55.0411 63.6516 54.8803 63.5005 54.7794 63.3442C54.6784 63.188 54.6279 63.0048 54.6279 62.7948C54.6279 62.4566 54.7528 62.1826 55.0026 61.9725C55.2524 61.7625 55.6112 61.6574 56.079 61.6574C56.4724 61.6574 56.8724 61.7061 57.279 61.8034C57.6856 61.9008 58.1999 62.0724 58.8218 62.3183L59.6192 60.4663C59.0185 60.2153 58.4431 60.0206 57.893 59.8823C57.3428 59.744 56.7647 59.6748 56.1587 59.6748C54.9255 59.6748 53.9594 59.9591 53.2604 60.5278C52.5614 61.0965 52.2119 61.8777 52.2119 62.8716C52.2119 63.3993 52.3182 63.8604 52.5309 64.2548C52.7435 64.6493 53.0279 64.9951 53.384 65.2923C53.7402 65.5894 54.2744 65.8994 54.9867 66.2221C55.7468 66.5705 56.2504 66.8241 56.4976 66.9829C56.7448 67.1417 56.9322 67.3069 57.0597 67.4785C57.1873 67.6502 57.2511 67.8461 57.2511 68.0664C57.2511 68.4609 57.1062 68.758 56.8165 68.9578C56.5268 69.1576 56.1109 69.2575 55.5687 69.2575C55.1169 69.2575 54.6186 69.1884 54.0737 69.0501C53.5289 68.9117 52.8631 68.6735 52.0764 68.3354V70.5486C53.0332 70.9994 54.1335 71.2248 55.3773 71.2248Z" fill="#205C8C"/>
</svg>
