<svg xmlns="http://www.w3.org/2000/svg" width="58" height="43" viewBox="0 0 58 43">
    <defs>
        <linearGradient id="prefix__a" x1="60.212%" x2="34.626%" y1="100%" y2="50%">
            <stop offset="0%" stop-color="#3179FF"/>
            <stop offset="100%" stop-color="#4242F0"/>
        </linearGradient>
        <linearGradient id="prefix__b" x1="100%" x2="0%" y1="50%" y2="50%">
            <stop offset="0%" stop-color="#4242F0"/>
            <stop offset="100%" stop-color="#3179FF"/>
        </linearGradient>
    </defs>
    <g fill="none" fill-rule="evenodd">
        <path fill="url(#prefix__a)" d="M2.991 0L0 9 4.991 9z"/>
        <g>
            <path fill="url(#prefix__b)" d="M0 0L55 0 55 34.4 27.917 43 0 34.4z" transform="translate(2.99)"/>
            <path fill="#FFF" fill-rule="nonzero" d="M5.996 22v-2.642h1.47c.823 0 1.464-.193 1.921-.58.458-.388.686-.93.686-1.627 0-.68-.233-1.227-.7-1.64-.468-.414-1.098-.62-1.893-.62H4.76V22h1.236zm1.484-3.633H5.996v-2.48h1.519c.41.006.732.124.966.354.235.23.352.536.352.92 0 .39-.116.69-.347.896-.23.207-.566.31-1.006.31zM12.222 22v-3.613c.188-.417.555-.625 1.098-.625.166 0 .327.013.484.039l.005-1.113c-.111-.046-.251-.069-.42-.069-.508 0-.905.23-1.192.689l-.029-.591h-1.133V22h1.187zm3.003-6.03c.214 0 .38-.06.498-.178.117-.12.175-.268.175-.447 0-.183-.058-.334-.175-.454-.118-.12-.284-.181-.498-.181-.215 0-.38.06-.496.18-.116.121-.173.272-.173.455 0 .179.057.328.173.447.116.118.28.178.496.178zm.59 6.03v-5.283H14.63V22h1.186zm3.477.098c.38 0 .736-.083 1.064-.25.33-.165.59-.39.782-.676.192-.284.294-.591.307-.92h-1.118c-.013.254-.117.467-.312.64-.196.172-.441.258-.738.258-.39 0-.689-.14-.896-.422-.206-.282-.31-.709-.31-1.282v-.19c.004-.567.11-.989.318-1.267.208-.279.504-.418.888-.418.3 0 .546.098.74.293.194.196.297.445.31.747h1.118c-.02-.595-.227-1.076-.622-1.443-.396-.366-.908-.549-1.536-.549-.742 0-1.328.242-1.758.725-.43.484-.644 1.127-.644 1.931v.122c0 .844.216 1.504.65 1.983.432.478 1.018.718 1.757.718zm5.376 0c.44 0 .836-.087 1.189-.262.353-.174.636-.419.847-.734l-.64-.61c-.341.439-.784.658-1.328.658-.387 0-.708-.127-.964-.38-.256-.254-.401-.6-.437-1.036h3.452v-.478c0-.84-.196-1.49-.588-1.948-.393-.46-.948-.689-1.668-.689-.452 0-.862.116-1.23.347-.368.23-.654.554-.857.97-.204.414-.305.885-.305 1.413v.146c0 .788.233 1.419.7 1.892.467.474 1.077.71 1.829.71zm.947-3.233h-2.26c.055-.407.183-.724.383-.952.2-.228.463-.342.788-.342.33 0 .586.102.772.305.185.204.291.504.317.901v.088zM32.358 22c.642 0 1.21-.138 1.707-.415.496-.277.879-.67 1.147-1.182.269-.51.403-1.103.403-1.777v-.356c0-.665-.133-1.254-.4-1.768s-.644-.912-1.13-1.191c-.487-.28-1.045-.42-1.673-.42h-2.1V22h2.046zm-.004-.986h-.806v-5.127h.864c.638 0 1.125.203 1.46.61.335.407.503.996.503 1.768v.395c-.007.759-.183 1.34-.53 1.746-.346.405-.844.608-1.491.608zm5.561.986v-3.613c.189-.417.555-.625 1.099-.625.166 0 .327.013.483.039l.005-1.113c-.11-.046-.25-.069-.42-.069-.508 0-.905.23-1.191.689l-.03-.591H36.73V22h1.186zm4.57.098c.489 0 .92-.113 1.292-.337.373-.225.659-.542.86-.952.2-.41.3-.876.3-1.397l-.005-.278c-.036-.759-.276-1.367-.72-1.826-.445-.46-1.024-.689-1.736-.689-.482 0-.909.112-1.28.335-.37.223-.659.542-.864.957-.205.415-.308.881-.308 1.399v.058c0 .827.224 1.489.672 1.985.447.496 1.044.745 1.79.745zm0-.948c-.4 0-.713-.153-.937-.461-.225-.308-.337-.733-.337-1.277 0-.612.114-1.072.342-1.38.228-.307.535-.46.923-.46.393 0 .705.156.935.468.23.313.344.736.344 1.27 0 .602-.112 1.06-.335 1.372-.223.312-.534.468-.935.468zm4.639 2.881v-2.505c.348.381.812.572 1.392.572.625 0 1.123-.244 1.494-.73.37-.487.556-1.139.556-1.956v-.073c0-.853-.183-1.52-.549-2-.366-.48-.871-.72-1.516-.72-.599 0-1.073.212-1.42.635l-.05-.537h-1.093v7.314h1.186zm1.055-2.88c-.489 0-.84-.206-1.055-.616v-2.344c.212-.4.56-.6 1.045-.6.39 0 .69.154.9.464.21.309.316.727.316 1.255 0 .618-.107 1.08-.32 1.384-.213.304-.509.456-.886.456z" transform="translate(2.99)"/>
        </g>
    </g>
</svg>
